<svg width="16" height="16" viewBox="0 0 16 16" fill="none" xmlns="http://www.w3.org/2000/svg">
    <path d="M6.66589 12.6668C6.51012 12.6671 6.35916 12.6128 6.23922 12.5135C6.17171 12.4575 6.11591 12.3888 6.07501 12.3112C6.03411 12.2336 6.00891 12.1488 6.00086 12.0614C5.99281 11.9741 6.00207 11.8861 6.0281 11.8023C6.05413 11.7186 6.09642 11.6408 6.15255 11.5735L9.13922 8.00012L6.25922 4.42012C6.20384 4.35193 6.16249 4.27347 6.13753 4.18924C6.11258 4.10501 6.10452 4.01669 6.11381 3.92933C6.1231 3.84198 6.14957 3.75733 6.19168 3.68024C6.2338 3.60315 6.29074 3.53514 6.35922 3.48012C6.4282 3.41943 6.50897 3.37365 6.59648 3.34566C6.68399 3.31767 6.77634 3.30807 6.86774 3.31746C6.95913 3.32685 7.0476 3.35503 7.12759 3.40023C7.20758 3.44543 7.27736 3.50667 7.33255 3.58012L10.5526 7.58012C10.6506 7.69941 10.7042 7.84904 10.7042 8.00346C10.7042 8.15787 10.6506 8.3075 10.5526 8.42679L7.21922 12.4268C7.15234 12.5075 7.06739 12.5712 6.97125 12.6129C6.87511 12.6546 6.77049 12.6731 6.66589 12.6668Z" fill="#B4B4B4"/>
</svg>
