<svg width="27" height="27" viewBox="0 0 27 27" fill="none" xmlns="http://www.w3.org/2000/svg">
    <circle cx="13.5" cy="13.5" r="13.5" fill="#F50706"/>
    <path d="M17.9999 20.5H17.9149C8.08988 19.935 6.69488 11.645 6.49988 9.115C6.48417 8.91829 6.50742 8.72041 6.56832 8.53271C6.62921 8.345 6.72654 8.17115 6.85474 8.02113C6.98293 7.8711 7.13947 7.74784 7.31538 7.65842C7.4913 7.569 7.68313 7.51516 7.87988 7.5H10.6349C10.8352 7.49981 11.0309 7.55976 11.1967 7.67208C11.3625 7.78441 11.4908 7.94394 11.5649 8.13L12.3249 10C12.3981 10.1818 12.4162 10.381 12.3771 10.573C12.338 10.7651 12.2433 10.9413 12.1049 11.08L11.0399 12.155C11.2062 13.1004 11.659 13.9718 12.3368 14.6515C13.0147 15.3311 13.8849 15.7862 14.8299 15.955L15.9149 14.88C16.0556 14.7431 16.2336 14.6506 16.4265 14.6142C16.6195 14.5777 16.8189 14.5989 16.9999 14.675L18.8849 15.43C19.0681 15.5064 19.2245 15.6357 19.334 15.8013C19.4435 15.967 19.5013 16.1614 19.4999 16.36V19C19.4999 19.3978 19.3418 19.7794 19.0605 20.0607C18.7792 20.342 18.3977 20.5 17.9999 20.5ZM7.99988 8.5C7.86727 8.5 7.74009 8.55268 7.64633 8.64645C7.55256 8.74022 7.49988 8.86739 7.49988 9V9.04C7.72988 12 9.20488 19 17.9699 19.5C18.0356 19.5041 18.1014 19.4951 18.1636 19.4737C18.2259 19.4522 18.2832 19.4187 18.3325 19.375C18.3817 19.3314 18.4218 19.2784 18.4506 19.2192C18.4793 19.16 18.4961 19.0957 18.4999 19.03V16.36L16.6149 15.605L15.1799 17.03L14.9399 17C10.5899 16.455 9.99988 12.105 9.99988 12.06L9.96988 11.82L11.3899 10.385L10.6399 8.5H7.99988Z" fill="white"/>
</svg>
