<svg width="14" height="12" viewBox="0 0 14 12" fill="none" xmlns="http://www.w3.org/2000/svg">
    <path d="M11.1877 1.07629C11.4166 0.858359 11.7212 0.737878 12.0372 0.740269C12.3533 0.742661 12.656 0.867738 12.8816 1.08911C13.1072 1.31048 13.238 1.61082 13.2463 1.92677C13.2547 2.24272 13.14 2.54956 12.9264 2.78254L6.44265 10.8913C6.33116 11.0114 6.1966 11.1077 6.04702 11.1746C5.89743 11.2415 5.73589 11.2776 5.57206 11.2806C5.40823 11.2836 5.24547 11.2536 5.09351 11.1923C4.94155 11.131 4.80351 11.0397 4.68765 10.9238L0.387901 6.62404C0.26816 6.51246 0.172119 6.37791 0.105507 6.22841C0.0388952 6.07892 0.00307694 5.91753 0.00018967 5.75389C-0.0026976 5.59025 0.0274053 5.4277 0.088702 5.27594C0.149999 5.12419 0.241234 4.98633 0.356964 4.8706C0.472695 4.75487 0.610549 4.66364 0.762305 4.60234C0.914061 4.54104 1.07661 4.51094 1.24025 4.51383C1.40389 4.51672 1.56528 4.55253 1.71478 4.61915C1.86427 4.68576 1.99883 4.7818 2.1104 4.90154L5.51315 8.30266L11.1568 1.11204C11.1669 1.09953 11.1778 1.08759 11.1893 1.07629H11.1877Z" fill="#41C25D"/>
</svg>
