<svg width="21px" height="21px" viewBox="0 0 21 21" xmlns="http://www.w3.org/2000/svg">
    <path d="M11.7339 10.4999L15.4964 6.74617C15.6612 6.5814 15.7538 6.35793 15.7538 6.12492C15.7538 5.8919 15.6612 5.66843 15.4964 5.50367C15.3317 5.3389 15.1082 5.24634 14.8752 5.24634C14.6422 5.24634 14.4187 5.3389 14.2539 5.50367L10.5002 9.26617L6.74644 5.50367C6.58168 5.3389 6.3582 5.24634 6.12519 5.24634C5.89218 5.24634 5.66871 5.3389 5.50394 5.50367C5.33917 5.66843 5.24661 5.8919 5.24661 6.12492C5.24661 6.35793 5.33917 6.5814 5.50394 6.74617L9.26644 10.4999L5.50394 14.2537C5.42193 14.335 5.35683 14.4318 5.31241 14.5384C5.26799 14.645 5.24512 14.7594 5.24512 14.8749C5.24512 14.9904 5.26799 15.1048 5.31241 15.2114C5.35683 15.318 5.42193 15.4148 5.50394 15.4962C5.58528 15.5782 5.68206 15.6433 5.78869 15.6877C5.89531 15.7321 6.00968 15.755 6.12519 15.755C6.2407 15.755 6.35507 15.7321 6.4617 15.6877C6.56832 15.6433 6.6651 15.5782 6.74644 15.4962L10.5002 11.7337L14.2539 15.4962C14.3353 15.5782 14.4321 15.6433 14.5387 15.6877C14.6453 15.7321 14.7597 15.755 14.8752 15.755C14.9907 15.755 15.1051 15.7321 15.2117 15.6877C15.3183 15.6433 15.4151 15.5782 15.4964 15.4962C15.5785 15.4148 15.6435 15.318 15.688 15.2114C15.7324 15.1048 15.7553 14.9904 15.7553 14.8749C15.7553 14.7594 15.7324 14.645 15.688 14.5384C15.6435 14.4318 15.5785 14.335 15.4964 14.2537L11.7339 10.4999Z"></path>
</svg>