<svg xmlns="http://www.w3.org/2000/svg" display="none">
    <symbol id="search" viewBox="0 0 17 17">
        <path d="M15.75 15.75L12.3855 12.3795L15.75 15.75ZM14.25 7.875C14.25 9.56576 13.5784 11.1873 12.3828 12.3828C11.1873 13.5784 9.56576 14.25 7.875 14.25C6.18424 14.25 4.56274 13.5784 3.36719 12.3828C2.17165 11.1873 1.5 9.56576 1.5 7.875C1.5 6.18424 2.17165 4.56274 3.36719 3.36719C4.56274 2.17165 6.18424 1.5 7.875 1.5C9.56576 1.5 11.1873 2.17165 12.3828 3.36719C13.5784 4.56274 14.25 6.18424 14.25 7.875V7.875Z"
              stroke-width="2" stroke-linecap="round"/>
    </symbol>

    <symbol id="location" viewBox="0 0 15 18">
        <path d="M7.34434 0C11.4007 0 14.6887 3.288 14.6887 7.34434C14.6887 10.4478 12.508 13.83 8.20306 17.527C7.96369 17.7326 7.6585 17.8456 7.34293 17.8453C7.02736 17.845 6.72237 17.7315 6.48336 17.5255L6.19862 17.2784C2.08429 13.6778 0 10.3785 0 7.34434C0 3.288 3.288 0 7.34434 0ZM7.34434 1.1299C5.69617 1.1299 4.1155 1.78463 2.95007 2.95007C1.78463 4.1155 1.1299 5.69617 1.1299 7.34434C1.1299 9.98228 3.04922 13.0217 6.94059 16.4265L7.22156 16.6698C7.25572 16.6991 7.29928 16.7153 7.34434 16.7153C7.3894 16.7153 7.43296 16.6991 7.46712 16.6698C11.5468 13.1656 13.5588 10.0448 13.5588 7.34434C13.5588 6.52825 13.398 5.72015 13.0857 4.96618C12.7734 4.21221 12.3157 3.52713 11.7386 2.95007C11.1615 2.373 10.4765 1.91525 9.7225 1.60294C8.96853 1.29064 8.16043 1.1299 7.34434 1.1299ZM7.34434 4.51959C8.09351 4.51959 8.81199 4.8172 9.34174 5.34694C9.87148 5.87668 10.1691 6.59517 10.1691 7.34434C10.1691 8.09351 9.87148 8.81199 9.34174 9.34174C8.81199 9.87148 8.09351 10.1691 7.34434 10.1691C6.59517 10.1691 5.87668 9.87148 5.34694 9.34174C4.8172 8.81199 4.51959 8.09351 4.51959 7.34434C4.51959 6.59517 4.8172 5.87668 5.34694 5.34694C5.87668 4.8172 6.59517 4.51959 7.34434 4.51959ZM7.34434 5.64949C6.89484 5.64949 6.46375 5.82806 6.1459 6.1459C5.82806 6.46375 5.64949 6.89484 5.64949 7.34434C5.64949 7.79384 5.82806 8.22493 6.1459 8.54278C6.46375 8.86062 6.89484 9.03919 7.34434 9.03919C7.79384 9.03919 8.22493 8.86062 8.54278 8.54278C8.86062 8.22493 9.03919 7.79384 9.03919 7.34434C9.03919 6.89484 8.86062 6.46375 8.54278 6.1459C8.22493 5.82806 7.79384 5.64949 7.34434 5.64949Z"/>
    </symbol>


    <symbol id="map" viewBox="0 0 20 18">
        <path d="M19.2759 0.668208C19.3734 0.718702 19.4551 0.794966 19.5122 0.888698C19.5694 0.982431 19.5997 1.09004 19.5999 1.19981V13.1998C19.5999 13.3035 19.5731 13.4054 19.522 13.4956C19.4709 13.5859 19.3972 13.6613 19.3083 13.7146L13.3083 17.3146C13.2179 17.3687 13.1149 17.3981 13.0096 17.3998C12.9043 17.4015 12.8004 17.3754 12.7083 17.3242L7.2963 14.317C7.20848 14.2612 7.10668 14.2314 7.00265 14.231C6.89861 14.2306 6.79658 14.2596 6.7083 14.3146L6.6915 14.3242L1.2915 17.3242C1.20017 17.375 1.09715 17.401 0.992655 17.3998C0.888157 17.3985 0.785801 17.37 0.695721 17.317C0.605641 17.264 0.530961 17.1884 0.479076 17.0977C0.42719 17.007 0.399898 16.9043 0.399903 16.7998V5.39981C0.399792 5.30329 0.422969 5.20817 0.467466 5.12251C0.511963 5.03686 0.576467 4.96321 0.655503 4.90781L6.6555 0.707808C6.75642 0.63707 6.87666 0.599121 6.9999 0.599121C7.12314 0.599121 7.24339 0.63707 7.3443 0.707808L12.9999 4.66781L18.6555 0.707808C18.7456 0.644947 18.8512 0.608013 18.9608 0.601031C19.0704 0.594048 19.1798 0.617284 19.2771 0.668208H19.2759ZM1.5999 5.71181V15.7798L6.0999 13.2802C6.1971 13.2226 6.2979 13.1746 6.3999 13.1374V2.35181L1.5999 5.71181ZM7.8975 13.279L12.4047 15.7822L12.3999 5.71181L7.5999 2.35181V13.1398C7.7019 13.1758 7.8015 13.2226 7.8975 13.279ZM13.6047 15.7378L18.3999 12.8602V2.35181L13.5999 5.71181L13.6047 15.7378Z"/>
    </symbol>

    <symbol id="mail" viewBox="0 0 17 13">
        <path d="M13.9425 0.5625C15.0905 0.5625 16.0207 1.49271 16.0207 2.64062V10.3594C16.0207 11.5073 15.0905 12.4375 13.9425 12.4375H3.05713C2.50598 12.4375 1.9774 12.2186 1.58767 11.8288C1.19795 11.4391 0.979004 10.9105 0.979004 10.3594V2.64062C0.979004 1.49271 1.90921 0.5625 3.05713 0.5625H13.9425ZM15.0311 4.26394L8.73813 7.7251C8.67338 7.7607 8.60148 7.78135 8.52771 7.78553C8.45394 7.78971 8.38017 7.77731 8.31182 7.74925L8.26155 7.7255L1.96859 4.26354V10.3594C1.96859 10.6481 2.08327 10.9249 2.28741 11.1291C2.49155 11.3332 2.76843 11.4479 3.05713 11.4479H13.9425C14.2312 11.4479 14.5081 11.3332 14.7123 11.1291C14.9164 10.9249 15.0311 10.6481 15.0311 10.3594V4.26394ZM13.9425 1.55208H3.05713C2.76843 1.55208 2.49155 1.66677 2.28741 1.87091C2.08327 2.07505 1.96859 2.35193 1.96859 2.64062V3.13502L8.49984 6.72681L15.0311 3.13463V2.64062C15.0311 2.35193 14.9164 2.07505 14.7123 1.87091C14.5081 1.66677 14.2312 1.55208 13.9425 1.55208Z"/>
    </symbol>

    <symbol id="phone" viewBox="0 0 17 17">
        <path d="M13.8123 15.4062H13.722C3.28293 14.8059 1.80074 5.99781 1.59356 3.30969C1.56117 2.88827 1.69751 2.47125 1.97258 2.15035C2.24765 1.82946 2.63893 1.63096 3.06034 1.59853C3.10248 1.59534 3.14481 1.59375 3.18731 1.59375H5.98699C6.19979 1.59354 6.40774 1.65724 6.58392 1.77659C6.7601 1.89593 6.89638 2.06543 6.97512 2.26313L7.78262 4.25C7.86037 4.44313 7.87966 4.65485 7.8381 4.85886C7.79655 5.06287 7.69597 5.25017 7.54887 5.3975L6.41731 6.53969C6.59334 7.54446 7.07414 8.47077 7.79448 9.19302C8.51483 9.91527 9.43988 10.3985 10.4442 10.5772L11.597 9.435C11.7465 9.28952 11.9356 9.19129 12.1406 9.15255C12.3456 9.11382 12.5575 9.1363 12.7498 9.21719L14.7526 10.0194C14.9473 10.1006 15.1135 10.2379 15.2298 10.4139C15.3462 10.5899 15.4075 10.7965 15.4061 11.0075V13.8125C15.4061 14.2352 15.2381 14.6406 14.9393 14.9395C14.6404 15.2383 14.235 15.4062 13.8123 15.4062ZM3.18731 2.65625C3.11754 2.65604 3.04842 2.66957 2.98388 2.69608C2.91935 2.72258 2.86067 2.76154 2.81119 2.81072C2.76171 2.85991 2.7224 2.91835 2.69551 2.98273C2.66862 3.0471 2.65467 3.11614 2.65446 3.18591C2.65446 3.20078 2.65499 3.21548 2.65606 3.23C2.90043 6.375 4.46762 13.8125 13.7804 14.3438C13.921 14.3522 14.0592 14.3044 14.1646 14.211C14.27 14.1175 14.334 13.986 14.3425 13.8454L14.3436 13.8125V11.0075L12.3407 10.2053L10.8161 11.7194L10.5611 11.6875C5.93918 11.1084 5.31231 6.48656 5.31231 6.43875L5.28043 6.18375L6.78918 4.65906L5.99231 2.65625H3.18731Z"/>
        <path d="M14.3438 6.90625V5.84375H11.9074L15.4062 2.34494L14.6551 1.59375L11.1562 5.09256V2.65625H10.0938V6.90625H14.3438Z"/>
    </symbol>

    <symbol id="basket" viewBox="0 0 29 29">
        <path d="M10.7383 25.7778C11.7393 25.7778 12.5508 24.9663 12.5508 23.9653C12.5508 22.9643 11.7393 22.1528 10.7383 22.1528C9.73727 22.1528 8.92578 22.9643 8.92578 23.9653C8.92578 24.9663 9.73727 25.7778 10.7383 25.7778Z"/>
        <path d="M21.75 25.7778C22.751 25.7778 23.5625 24.9663 23.5625 23.9653C23.5625 22.9643 22.751 22.1528 21.75 22.1528C20.749 22.1528 19.9375 22.9643 19.9375 23.9653C19.9375 24.9663 20.749 25.7778 21.75 25.7778Z"/>
        <path d="M26.648 4.32592C26.573 4.23351 26.4785 4.15886 26.3713 4.10732C26.264 4.05579 26.1467 4.02865 26.0277 4.02786H9.25605L9.77967 5.63897H24.9724L22.8216 15.3056H10.7383L7.05689 3.64925C7.01707 3.52557 6.94792 3.41335 6.85534 3.32217C6.76276 3.23099 6.6495 3.16357 6.52522 3.12564L3.22244 2.11064C3.12089 2.07943 3.01418 2.06853 2.90841 2.07857C2.80264 2.0886 2.69989 2.11936 2.60601 2.16911C2.41642 2.26957 2.2745 2.44123 2.21147 2.64633C2.14845 2.85144 2.16948 3.07317 2.26994 3.26277C2.3704 3.45236 2.54207 3.59428 2.74717 3.65731L5.63911 4.54342L9.33661 16.224L8.0155 17.3034L7.91078 17.4081C7.58399 17.7847 7.39877 18.2635 7.387 18.762C7.37524 19.2604 7.53768 19.7474 7.84633 20.139C8.06589 20.406 8.3449 20.6179 8.66102 20.7578C8.97715 20.8977 9.32162 20.9616 9.66689 20.9445H23.1116C23.3253 20.9445 23.5302 20.8597 23.6812 20.7086C23.8323 20.5575 23.9172 20.3526 23.9172 20.139C23.9172 19.9253 23.8323 19.7204 23.6812 19.5694C23.5302 19.4183 23.3253 19.3334 23.1116 19.3334H9.538C9.44524 19.3302 9.35486 19.3032 9.2756 19.2549C9.19633 19.2066 9.13087 19.1387 9.08551 19.0577C9.04016 18.9767 9.01646 18.8854 9.01671 18.7926C9.01695 18.6998 9.04112 18.6086 9.08689 18.5279L11.0283 16.9167H23.4661C23.6523 16.9213 23.8343 16.8612 23.9812 16.7466C24.1281 16.6321 24.2307 16.4701 24.2716 16.2884L26.8252 5.01064C26.8497 4.89055 26.8465 4.76645 26.8158 4.64779C26.7851 4.52913 26.7277 4.41905 26.648 4.32592Z"/>
    </symbol>

    <symbol id="arrow-bottom" viewBox="0 0 11 6">
        <path d="M5.49975 5.66668C5.33424 5.66704 5.17385 5.60262 5.04641 5.4846L0.796414 1.52627C0.651761 1.39189 0.560794 1.19879 0.543525 0.989454C0.526256 0.780117 0.5841 0.571686 0.704331 0.410015C0.824562 0.248343 0.997333 0.146674 1.18463 0.127373C1.37194 0.108073 1.55843 0.172721 1.70308 0.307098L5.49975 3.85376L9.29641 0.433765C9.36887 0.368005 9.45224 0.318896 9.54173 0.289263C9.63122 0.259629 9.72506 0.250055 9.81788 0.26109C9.91069 0.272125 10.0006 0.303552 10.0825 0.353565C10.1645 0.403577 10.2367 0.471189 10.2952 0.552515C10.36 0.633915 10.4092 0.729411 10.4395 0.833019C10.4698 0.936628 10.4806 1.04612 10.4713 1.15462C10.462 1.26313 10.4327 1.36832 10.3854 1.46361C10.338 1.55889 10.2735 1.64221 10.196 1.70835L5.946 5.5321C5.8149 5.63146 5.65778 5.67885 5.49975 5.66668Z"/>
    </symbol>

    <symbol id="phone-mobile" viewBox="0 0 20 20">
        <path d="M2.86914 4.66211L4.94922 2.58398C5.20312 2.33008 5.54297 2.1875 5.90234 2.1875C6.26172 2.1875 6.60156 2.32813 6.85547 2.58398L9.0957 4.82031C9.34961 5.07422 9.49219 5.41602 9.49219 5.77539C9.49219 6.13672 9.35156 6.47461 9.0957 6.73047L7.3457 8.48242C7.74437 9.4113 8.31718 10.2553 9.0332 10.9688C9.75 11.6895 10.5879 12.2578 11.5176 12.6602L13.2676 10.9082C13.5215 10.6543 13.8613 10.5117 14.2207 10.5117C14.398 10.5111 14.5736 10.5458 14.7372 10.6139C14.9009 10.682 15.0493 10.782 15.1738 10.9082L17.416 13.1445C17.6699 13.3984 17.8125 13.7402 17.8125 14.0996C17.8125 14.4609 17.6719 14.7988 17.416 15.0547L15.3379 17.1328C14.9043 17.5664 14.3066 17.8145 13.6934 17.8145C13.5664 17.8145 13.4434 17.8047 13.3184 17.7832C10.7324 17.3574 8.16602 15.9805 6.09375 13.9102C4.02344 11.8359 2.64844 9.26953 2.21875 6.68164C2.0957 5.94727 2.3418 5.19141 2.86914 4.66211ZM3.60352 6.44922C3.98438 8.75195 5.22266 11.0488 7.08789 12.9141C8.95312 14.7793 11.248 16.0176 13.5508 16.3984C13.8398 16.4473 14.1367 16.3496 14.3477 16.1406L16.3887 14.0996L14.2246 11.9336L11.8848 14.2773L11.8672 14.2949L11.4453 14.1387C10.1662 13.6684 9.00456 12.9255 8.04103 11.9617C7.07751 10.9978 6.33509 9.83596 5.86523 8.55664L5.70898 8.13477L8.06836 5.77734L5.9043 3.61133L3.86328 5.65234C3.65234 5.86328 3.55469 6.16016 3.60352 6.44922Z"/>
    </symbol>

    <symbol id="arrow-left" viewBox="0 0 16 16">
        <path d="M7.33268 3.33325L2.66602 7.99992L7.33268 12.6666" stroke-width="2" stroke-linecap="round"
              stroke-linejoin="round"/>
        <path d="M2.66602 8H13.3327" stroke-width="2" stroke-linecap="round" stroke-linejoin="round"/>
    </symbol>

</svg>