<svg width="28" height="28" viewBox="0 0 28 28" fill="none" xmlns="http://www.w3.org/2000/svg">
    <path d="M13.9996 0.560059C6.57677 0.560059 0.55957 6.57726 0.55957 14.0001C0.55957 21.4229 6.57677 27.4401 13.9996 27.4401C21.4224 27.4401 27.4396 21.4229 27.4396 14.0001C27.4396 6.57726 21.4224 0.560059 13.9996 0.560059ZM19.1684 15.7235C19.1684 15.7235 20.357 16.8967 20.6496 17.4413C20.658 17.4525 20.6622 17.4637 20.665 17.4693C20.784 17.6695 20.812 17.8249 20.7532 17.9411C20.6552 18.1343 20.3192 18.2295 20.2044 18.2379H18.1044C17.9588 18.2379 17.6536 18.2001 17.284 17.9453C16.9998 17.7465 16.7198 17.4203 16.4468 17.1025C16.0394 16.6293 15.6866 16.2205 15.331 16.2205C15.2858 16.2204 15.2409 16.2275 15.198 16.2415C14.9292 16.3283 14.5848 16.7119 14.5848 17.7339C14.5848 18.0531 14.3328 18.2365 14.155 18.2365H13.1932C12.8656 18.2365 11.159 18.1217 9.64697 16.5271C7.79617 14.5741 6.13017 10.6569 6.11617 10.6205C6.01117 10.3671 6.22817 10.2313 6.46477 10.2313H8.58577C8.86857 10.2313 8.96097 10.4035 9.02537 10.5561C9.10097 10.7339 9.37817 11.4409 9.83317 12.2361C10.571 13.5325 11.0232 14.0589 11.3858 14.0589C11.4538 14.0581 11.5205 14.0408 11.5804 14.0085C12.0536 13.7453 11.9654 12.0583 11.9444 11.7083C11.9444 11.6425 11.943 10.9537 11.7008 10.6233C11.5272 10.3839 11.2318 10.2929 11.0526 10.2593C11.1251 10.1592 11.2207 10.078 11.3312 10.0227C11.656 9.86026 12.2412 9.83646 12.8222 9.83646H13.1456C13.7756 9.84486 13.938 9.88546 14.1662 9.94286C14.6282 10.0535 14.638 10.3517 14.5974 11.3723C14.5848 11.6621 14.5722 11.9897 14.5722 12.3761C14.5722 12.4601 14.568 12.5497 14.568 12.6449C14.554 13.1643 14.5372 13.7537 14.904 13.9959C14.9518 14.0259 15.0071 14.0419 15.0636 14.0421C15.191 14.0421 15.5746 14.0421 16.6134 12.2599C16.9337 11.6862 17.2121 11.0901 17.4464 10.4763C17.4674 10.4399 17.529 10.3279 17.6018 10.2845C17.6555 10.2571 17.7151 10.2431 17.7754 10.2439H20.2688C20.5404 10.2439 20.7266 10.2845 20.7616 10.3895C20.8232 10.5561 20.7504 11.0643 19.6122 12.6057L19.104 13.2763C18.0722 14.6287 18.0722 14.6973 19.1684 15.7235Z" fill="#4577BA"/>
</svg>
